# xmcd
#
# Track frame offsets: 
#        150
#        16838
#        33005
#        53719
#        73095
#        87240
#        104788
#        126911
#        139230
#        157035
#
# Disc length: 2505 seconds
#
# Revision: 0
# Processed by: cddbd v1.5.2PL0 Copyright (c) Steve Scherf et al.
# Submitted via: ExactAudioCopy v1.0b4
#
DISCID=8709c70a
DTITLE=Mississippi Fever - 300 Miles To Memphis
DYEAR=2015
DGENRE=Rockin' Blues
TTITLE0=I Feel Like Superman
TTITLE1=Traveling Riverside Blues
TTITLE2=Steal Away Your Love
TTITLE3=Downtown Train
TTITLE4=Till the Sunrise
TTITLE5=Black Dress
TTITLE6=Out All Night
TTITLE7=300 Miles to Memphis
TTITLE8=The Devil's Got You Now
TTITLE9=Jesus Just Left Chicago
EXTD=
EXTT0=
EXTT1=
EXTT2=
EXTT3=
EXTT4=
EXTT5=
EXTT6=
EXTT7=
EXTT8=
EXTT9=
PLAYORDER=
